<svg xmlns="http://www.w3.org/2000/svg" viewBox="0 0 512 512" width="512" height="512">
	<style>
		tspan { white-space:pre }
	</style>
	<path id="M " fill="#00c5ff" d="M488.84 376.4Q488.84 378.98 484.12 386.71Q479.82 394.43 479.82 400.02L485.84 400.02L486.69 416.33Q487.12 427.06 482.83 429.64L485.84 464.85L485.84 476.87Q460.08 476.87 438.61 473.86Q442.9 466.13 447.2 458.41Q449.77 451.97 449.77 440.8Q449.77 436.51 457.5 430.5Q465.66 424.49 465.66 422.34Q465.66 421.05 463.51 420.19Q461.36 419.34 461.36 418.48Q461.36 418.48 462.22 417.62Q475.53 409.89 475.53 394.43Q475.53 391.43 473.81 391.43Q467.8 391.43 462.65 405.17Q459.65 414.18 456.21 423.63Q451.49 426.21 444.62 432.65Q442.47 436.08 442.47 442.52Q442.04 451.11 441.61 453.25L435.6 453.25L435.17 455.4Q435.17 459.69 438.61 462.27Q437.75 463.13 436.46 463.13Q433.46 463.13 432.6 459.26L426.59 459.26Q426.59 465.27 423.58 476.87L396.96 476.87Q399.97 433.07 400.83 378.98Q401.26 341.63 400.83 281.52Q399.97 204.67 399.97 183.63Q403.83 187.5 407.27 187.5Q408.13 187.5 408.98 186.64L408.98 177.62Q406.41 177.62 402.12 178.48Q397.82 178.91 395.68 178.91L394.82 178.91Q394.82 176.33 404.26 176.33L404.69 177.19Q404.69 180.63 399.97 180.63Q396.1 173.76 396.53 166.46L396.96 160.02Q402.12 153.15 402.97 153.15Q403.4 154.01 402.97 157.01Q414.57 150.14 426.59 139.41L411.99 139.84L396.96 139.41L396.96 130.39L408.98 130.39L411.99 121.38L420.58 121.38L418 115.8Q419.72 115.37 408.56 115.37Q407.27 115.37 405.98 115.8L399.97 124.38L394.82 125.24Q388.81 125.24 373.35 112.79Q369.49 116.23 373.35 127.39L367.34 127.39Q365.19 126.1 365.19 125.24Q365.19 125.67 369.06 123.95Q355.32 127.39 349.74 127.39Q360.47 131.68 382.37 139.41Q381.08 148 379.36 157.01Q377.21 169.89 373.35 172.04Q376.78 176.76 376.36 178.91L376.36 180.63L370.34 183.63Q368.63 188.78 368.63 198.66Q368.63 205.96 364.76 211.54Q360.04 218.84 358.75 222.27Q355.32 232.58 352.31 253.61Q349.74 274.65 346.73 284.53L340.72 284.53L326.12 355.37L320.11 355.37Q320.54 354.08 320.54 367.39Q320.54 371.68 315.82 378.98Q311.1 385.85 311.1 389.71Q311.1 391.86 314.1 397.01Q310.24 398.73 306.8 417.19Q304.66 429.21 302.51 441.23Q300.79 439.94 293.49 441.23Q292.21 440.8 292.21 439.09Q292.21 436.08 296.5 429.64Q296.5 429.64 291.78 429.64Q290.92 429.64 290.49 426.63Q286.62 429.64 278.47 435.22Q278.04 434.36 273.74 426.63Q270.74 421.05 270.74 417.19Q270.74 412.04 278.47 414.61L278.47 405.6L272.89 405.6Q270.74 405.6 268.16 413.33Q265.59 421.05 260.86 421.05Q260.86 421.05 256.57 420.19Q253.57 419.77 251.85 420.62L248.84 411.61Q246.27 410.75 244.98 410.75Q243.69 410.75 240.26 411.61Q237.25 412.47 234.25 411.61Q235.1 413.33 238.97 416.33Q243.26 419.34 243.26 421.91Q243.26 432.65 243.26 432.65Q228.66 427.92 227.81 424.49Q229.95 424.49 237.25 426.63L234.25 420.62Q220.08 423.63 216.64 423.63L201.62 381.98Q205.05 378.55 205.05 375.11L204.62 373.4L195.61 367.39Q196.04 369.1 196.04 352.36Q196.04 348.5 191.74 342.91Q187.88 337.33 187.02 334.76Q185.3 328.75 184.01 315.87Q183.16 302.99 181.01 296.12L175 296.12Q173.71 287.53 171.99 269.5Q176.29 267.78 184.01 263.49Q181.01 261.34 175 257.91L177.14 258.34Q180.15 258.34 181.01 254.9L168.99 254.9Q140.22 192.22 140.22 165.17Q140.22 161.31 142.37 157.01L133.35 157.01Q131.64 148 127.77 130.39L118.76 130.39Q118.76 142.42 115.75 183.63Q114.03 183.63 110.6 183.2Q107.16 183.2 105.88 183.2Q105.02 183.2 103.3 183.2Q102.01 183.63 101.15 183.63Q106.73 186.21 118.76 189.64L118.76 211.54Q118.76 226.14 121.76 251.47Q124.77 276.8 124.77 290.54L124.77 296.12Q116.61 296.98 112.74 299.12L124.77 302.13Q123.05 315.87 123.05 322.74Q123.05 328.75 124.77 340.77Q119.18 345.92 106.73 355.37Q111.03 354.08 118.76 352.36Q119.18 359.23 121.76 373.4Q114.46 373.4 101.15 370.39Q98.15 355.79 88.27 353.65Q77.11 353.22 65.95 352.79L62.51 352.36L59.51 346.78Q56.93 345.49 54.36 345.49Q52.21 345.49 52.21 346.78Q52.21 355.37 59.94 357.51Q67.66 359.66 74.53 361.38L74.53 370.39L59.51 373.4Q60.8 374.26 62.51 378.55Q64.66 382.41 68.52 381.98Q68.09 381.98 67.66 381.55Q67.66 380.7 71.96 379.84Q74.53 379.41 77.11 378.98L83.12 391Q89.56 394.01 112.74 394.01L115.75 394.01L109.74 384.99L115.32 384.56L121.76 384.99Q124.77 392.72 124.77 398.3Q124.77 400.45 118.76 408.6Q125.2 412.9 125.2 413.75Q116.18 417.62 118.76 417.62L98.15 408.6Q98.15 408.6 98.15 412.9Q98.15 415.04 96.86 415.04Q98.15 415.04 83.12 408.6L83.12 400.02L77.11 400.02Q76.25 402.59 75.82 407.74Q75.39 412.47 74.53 414.61L68.52 417.62Q68.52 417.62 68.52 414.18L68.09 413.75Q67.24 413.75 65.52 414.61L65.52 420.62Q92.14 422.77 98.15 424.49Q117.04 428.78 124.77 441.23L130.78 441.23L130.78 456.26Q121.76 454.97 104.16 453.25L101.15 459.26L108.45 458.83L112.74 459.26L124.77 467.85Q115.32 467.85 80.12 464.85Q83.12 465.27 83.12 460.98Q83.12 456.26 80.12 450.25Q73.25 451.54 59.51 456.26L53.5 464.85L50.49 465.27Q37.18 465.27 38.9 464.85Q42.76 432.22 41.9 411.61Q56.07 415.04 59.51 414.61L62.51 408.6Q62.51 408.6 38.9 408.6L38.9 349.35L47.49 352.36L47.49 346.78L38.9 346.78Q38.04 335.62 35.89 314.15Q38.04 314.58 40.62 314.58L50.49 314.15Q48.34 314.58 48.34 315.44Q48.34 317.58 56.5 319.73L56.5 311.14Q59.08 309.86 68.52 308.14L68.52 302.13Q50.06 296.98 35.89 296.12Q35.89 273.36 34.18 227.85Q32.46 181.91 32.46 158.73Q32.46 144.56 36.32 110.22Q39.76 78.87 38.9 62.13Q88.27 58.7 132.06 58.7Q160.83 58.7 175 59.55Q176.29 68.57 177.57 77.59Q180.15 91.75 184.01 91.75L178 100.77L187.02 100.77Q187.88 105.49 190.02 115.8L195.61 115.8Q199.9 123.95 199.9 137.26Q199.9 145.42 201.62 151L210.63 163.02Q210.2 160.02 210.2 172.04L210.63 175.05L216.64 175.05Q225.23 196.51 225.23 205.96Q225.23 207.67 223.51 210.25Q222.22 212.4 222.22 214.54Q222.22 216.26 227.38 225.28Q232.53 234.29 232.53 245.03Q232.53 248.03 234.25 254.9L240.26 257.91Q248.41 279.8 254.85 328.75Q259.15 329.18 260.86 334.76Q260.86 334.76 266.02 334.76Q281.47 334.76 281.47 334.76Q276.75 331.75 266.88 325.74Q267.3 324.45 271.17 311.14Q274.17 301.27 274.17 295.69Q274.17 290.97 272.89 287.53Q275.03 286.24 276.75 286.24Q278.47 286.24 278.47 281.52L284.48 287.53Q284.48 287.53 284.48 302.13L284.48 305.13L293.49 305.13Q293.49 302.13 295.21 296.12Q296.93 290.11 296.93 286.24Q296.93 285.38 296.93 283.67Q296.5 281.95 296.5 281.52Q284.05 281.52 284.05 274.65Q284.05 266.92 290.49 263.49L281.47 263.49L281.47 272.5L278.47 257.91L284.48 251.9Q284.05 253.61 284.05 239.87L284.48 236.87L290.49 236.87Q293.06 221.41 293.06 210.25Q293.06 202.09 298.65 186.21Q304.66 169.89 304.66 160.02Q304.66 156.15 308.95 150.57Q313.24 144.56 314.1 142.42Q315.82 137.69 315.82 128.68Q316.25 119.66 317.11 115.8Q325.26 94.33 337.72 50.54Q356.18 50.54 397.39 48.39Q436.03 46.67 457.07 47.1L482.83 47.53L483.26 53.54Q483.26 55.69 482.4 58.27Q481.97 60.84 479.82 59.55L482.83 68.14Q479.4 70.72 474.24 77.16Q469.52 73.29 465.66 73.29Q463.51 73.29 462.22 74.15L462.22 83.17L447.62 91.75L447.62 97.77Q457.93 96.91 463.51 96.91Q469.95 96.91 482.83 97.77L482.83 112.79Q482.83 141.99 484.98 201.23Q487.55 260.05 487.55 289.68Q487.55 320.59 485.84 346.78L486.69 345.92Q488.84 345.92 485.84 358.37L488.84 358.37Q488.84 358.37 488.84 376.4ZM250.13 430.93Q250.13 432.65 246.27 435.22L245.84 432.22Q245.84 429.21 247.56 429.21Q250.13 429.21 250.13 430.93ZM276.32 457.98Q276.32 459.26 274.17 459.26Q272.46 459.26 266.88 455.4Q261.72 451.54 261.72 450.25Q262.15 449.82 262.58 449.82Q265.59 449.82 270.74 452.82Q276.32 455.4 276.32 457.98ZM238.11 439.94Q233.82 444.24 226.52 444.24Q224.37 444.24 221.8 442.09Q219.22 439.51 219.22 437.37L222.22 435.22Q238.11 435.22 238.11 439.94ZM246.27 450.25L246.27 464.85L240.26 464.85Q238.97 460.55 238.97 455.4Q238.97 449.82 241.54 449.82L243.26 450.25L246.27 450.25ZM239.83 448.1Q238.11 450.25 234.25 450.25L231.24 459.26Q229.52 460.12 228.24 460.12Q227.81 460.12 228.24 459.69Q229.09 457.98 229.09 457.55Q229.09 456.26 228.24 456.26Q227.38 457.12 226.09 457.12Q225.66 456.69 225.66 455.83Q225.66 453.25 229.95 449.82Q234.68 446.38 237.25 446.38Q239.83 446.38 239.83 448.1ZM232.53 463.56Q232.53 465.7 228.24 467.85L227.81 463.99Q227.81 461.41 229.52 461.41Q232.53 461.41 232.53 463.56ZM108.45 381.55Q101.58 384.13 86.13 384.99Q86.13 384.99 86.13 380.27Q86.13 378.98 89.13 378.98Q108.45 378.98 108.45 381.55ZM472.53 117.94Q471.24 115.37 467.37 115.37Q463.08 115.37 463.08 116.66Q463.08 119.23 471.24 121.38Q472.53 120.09 472.53 117.94ZM456.64 125.24Q456.64 123.95 455.78 123.95L453.21 124.38Q448.91 128.68 448.48 130.39Q449.34 130.82 450.63 130.82L453.21 130.39Q456.64 126.96 456.64 125.24ZM469.09 169.46Q469.09 164.74 459.22 163.02L462.22 169.03Q467.37 170.32 467.37 170.32Q469.09 170.32 469.09 169.46ZM360.47 106.78Q360.47 102.49 358.32 102.49Q358.32 102.49 355.75 103.78L349.74 115.8L358.75 118.8Q360.47 111.07 360.47 106.78ZM423.58 177.62Q423.58 171.18 418.43 171.18Q415.85 171.18 415 172.04L411.99 180.63L418 183.63Q418.86 181.49 423.58 177.62ZM326.12 148L332.13 148Q329.13 141.56 329.56 141.56Q329.13 141.56 329.13 142.42L326.12 142.42L326.12 148Q314.53 154.87 314.53 160.88Q314.53 164.74 318.4 164.74Q323.98 164.74 324.84 159.16Q325.69 153.15 326.12 148ZM436.46 282.38Q436.46 278.51 426.59 278.51Q426.59 278.51 426.16 278.94Q430.45 281.09 435.6 284.53Q436.46 282.81 436.46 282.38ZM334.71 201.66L361.76 198.66L361.76 192.65L352.74 192.65Q348.88 192.65 336.86 196.94Q324.84 201.23 324.84 203.38Q324.84 204.24 326.12 204.67Q329.56 208.1 334.71 207.25L334.71 201.66ZM318.4 193.08Q317.97 192.65 317.54 192.65Q317.11 192.65 305.09 186.64L308.09 195.65Q318.4 195.65 318.4 193.08ZM168.99 84.03Q168.99 80.59 167.27 80.59L162.98 83.17Q157.82 98.62 157.82 105.92Q157.82 108.93 159.54 108.93L162.98 106.78Q168.99 90.9 168.99 84.03ZM132.49 66.85Q131.21 64.71 128.2 64.71Q121.76 64.71 121.76 71.15Q121.76 74.58 126.05 74.58Q132.49 74.58 132.49 66.85ZM329.13 284.53L337.72 284.53Q337.29 284.1 337.29 277.23Q337.29 275.08 335.14 275.08L332.13 275.51L329.13 278.51L329.13 284.53ZM296.07 251.9Q293.06 248.89 287.48 248.89L287.48 254.9Q296.07 254.9 296.07 251.9ZM115.75 97.77L115.75 89.18Q112.32 90.9 112.32 90.9L115.75 80.16Q114.89 76.73 111.89 76.73L109.74 77.16L109.74 83.17Q104.16 83.17 104.16 86.6Q106.3 90.47 109.74 91.75Q104.59 90.04 104.59 90.04Q111.03 95.62 115.75 97.77ZM150.96 120.52Q150.96 117.51 147.52 117.51Q147.52 117.51 142.37 118.8L139.36 130.39L148.38 130.39Q147.95 129.97 147.95 129.11Q147.95 127.82 149.24 125.24Q150.96 122.24 150.96 120.52ZM317.11 299.98Q314.1 296.12 309.38 296.12L308.09 296.12L305.09 305.13Q317.11 302.99 317.11 299.98ZM418 423.63L423.58 423.63Q422.72 423.2 422.72 419.34Q422.72 417.62 418 417.62L418 423.63ZM144.52 146.28Q144.52 141.56 142.37 136.41L136.36 136.41Q137.65 149.29 142.8 149.29Q144.52 149.29 144.52 146.28ZM154.39 166.03L160.4 166.03Q159.11 165.17 159.11 161.74Q159.11 160.02 154.39 160.02L154.39 166.03ZM309.81 318.44Q305.94 311.57 302.51 311.14L305.09 319.73L307.66 320.16Q309.81 320.16 309.81 318.44ZM419.29 426.63Q418.43 425.78 416.28 425.78L411.99 426.63Q406.84 430.07 406.84 432.22Q407.27 432.65 409.41 432.65Q411.56 432.65 415.42 430.93Q419.29 428.78 419.29 426.63ZM219.65 235.15Q219.65 233.86 217.93 233.86Q211.49 233.86 211.49 237.3Q213.64 239.87 219.22 239.87Q219.65 241.59 219.65 235.15ZM89.56 115.37Q89.56 112.79 86.13 112.79L89.13 121.38Q89.56 123.1 89.56 115.37ZM296.93 330.46Q294.78 326.6 287.48 325.74L290.49 331.75L293.49 332.18Q296.93 332.18 296.93 330.46ZM69.38 105.92Q69.38 105.49 53.5 94.76L59.51 103.78Q67.24 106.35 68.52 106.35Q68.95 106.35 69.38 105.92ZM198.61 231.72Q198.18 230.86 197.32 230.86L195.61 231.29L195.61 236.87Q182.73 241.16 182.73 242.02L190.02 242.88Q198.61 239.45 198.61 231.72ZM293.49 346.78L302.51 349.35L299.5 340.77L293.49 340.77L296.5 334.76L287.48 334.76Q286.62 342.49 284.48 358.37L293.49 355.37L293.49 346.78ZM229.95 272.5Q228.24 271.65 226.95 271.65Q226.09 271.65 224.37 272.07Q223.08 272.5 222.22 272.5Q216.21 278.51 216.21 280.66Q216.21 281.52 217.5 281.52Q220.51 281.52 225.23 278.51Q229.95 275.08 229.95 272.5ZM208.06 243.31Q208.06 242.45 207.2 242.45Q204.19 242.45 193.03 249.75Q182.3 256.62 181.87 258.77L183.16 258.77Q187.45 258.77 197.75 252.75Q208.06 246.74 208.06 243.31ZM80.97 132.97Q80.97 126.96 76.25 126.96L74.53 127.39L68.52 142.42L74.53 142.42Q80.97 138.98 80.97 132.97ZM300.36 376.4Q300.36 373.4 293.49 373.4L299.5 378.98Q300.36 378.12 300.36 376.4ZM290.92 369.1Q290.92 368.25 290.49 367.39L281.47 367.39Q279.33 351.5 275.89 337.76L269.88 337.76L269.88 339.91Q269.88 341.63 268.16 342.91Q266.88 344.2 266.88 345.49L266.88 346.78L272.89 349.35Q270.74 350.64 270.74 354.94Q270.74 360.09 272.89 367.39L263.87 364.38L263.87 370.39L272.89 370.39Q271.6 375.54 266.88 373.4L266.88 381.98L275.89 381.98L280.61 370.82L282.33 367.39L282.33 367.82L281.47 370.39L284.48 370.39L284.48 378.98L290.49 378.98Q289.63 378.12 290.06 374.26Q290.92 369.1 290.92 369.1ZM293.06 391Q290.06 387.99 284.48 387.99L284.48 394.01Q293.06 394.01 293.06 391ZM257.43 364.38Q254 358.8 248.84 358.37L248.84 367.39L252.28 367.39Q257.43 368.67 257.43 364.38ZM296.5 414.61Q295.64 414.18 295.64 409.89Q295.64 408.6 293.49 408.6Q287.05 408.6 287.05 410.32Q287.05 412.47 296.5 414.61ZM248.84 378.98L254.85 378.98Q254 378.55 254 374.69Q254 373.4 248.84 373.4L248.84 378.98ZM109.74 222.27Q107.59 218.84 103.73 218.84L101.15 219.27Q102.01 220.98 102.01 221.84Q102.01 223.13 100.72 223.13Q99.01 223.13 98.15 222.27L98.15 219.27Q93.85 216.69 89.13 210.25L87.41 210.25Q80.12 210.25 80.12 210.25Q68.52 225.28 68.52 229.57Q68.52 231.72 71.96 231.72Q78.4 231.72 90.85 227.85Q108.45 222.7 109.74 222.27ZM68.52 251.9Q67.66 246.74 65.52 236.87L59.51 236.87L56.5 248.89L50.92 248.46Q44.05 248.03 44.05 250.61Q47.49 254.9 52.64 254.9Q55.21 254.9 56.07 251.9Q57.36 248.89 59.08 248.89L59.51 248.89Q59.08 248.89 58.22 249.75Q58.22 251.9 68.52 251.9ZM112.74 314.15L118.76 314.15Q117.47 313.29 117.47 309.86Q117.47 308.14 112.74 308.14L112.74 314.15ZM74.53 305.13L91.71 304.7Q89.99 305.13 86.13 305.13L80.12 302.13L80.12 293.11Q79.26 292.68 76.25 292.68L71.53 293.11Q72.82 297.41 74.53 305.13ZM56.07 360.52L50.49 355.37L50.49 361.38L53.93 361.81Q56.07 361.81 56.07 360.52ZM71.96 397.01Q68.95 392.72 62.51 381.98L53.5 381.98Q54.36 391.86 56.5 400.02Q57.36 399.59 65.52 398.73Q71.96 397.87 71.96 397.01ZM101.15 453.25Q90.42 446.81 90.42 444.24Q93.42 440.37 101.15 435.22L89.13 435.22Q92.14 432.22 92.14 430.07Q91.28 428.78 87.84 428.78Q86.56 428.78 83.12 429.64L77.11 435.22Q76.25 434.36 75.39 434.36Q74.1 434.36 74.1 439.09L74.53 441.23L83.12 441.23L83.12 450.25Q86.13 451.97 92.14 451.97Q98.58 451.97 101.15 453.25ZM50.49 438.23L59.51 438.23Q56.93 437.37 56.93 434.79Q56.93 432.65 59.51 432.65L59.51 426.63L53.5 426.63L50.49 438.23ZM89.56 436.51Q89.56 439.51 83.12 441.23Q83.12 441.23 83.12 436.94Q83.12 435.22 86.13 435.22Q89.56 435.22 89.56 436.51Z" />
</svg>